<?xml version="1.0" encoding="UTF-8"?>
<svg id="Layer_1" data-name="Layer 1" xmlns="http://www.w3.org/2000/svg" xmlns:xlink="http://www.w3.org/1999/xlink" viewBox="0 0 96.51 96.51">
  <defs>
    <style>
      .cls-1 {
        fill: none;
      }

      .cls-2 {
        fill: #903de5;
        stroke: #903de5;
        stroke-miterlimit: 10;
      }

      .cls-3 {
        fill: #ffe36f;
      }

      .cls-4 {
        clip-path: url(#clippath);
      }
    </style>
    <clipPath id="clippath">
      <circle class="cls-1" cx="48.25" cy="48.25" r="47.75"/>
    </clipPath>
  </defs>
  <g class="cls-4">
    <circle class="cls-2" cx="48.25" cy="48.25" r="47.75"/>
    <g>
      <path class="cls-3" d="M20.1,43.18l-3.87,25.64c.94.19,1.68.29,2.24.29.99,0,2.03-.22,3.09-.67l-.29,2.36c-1.07.45-2.04.67-2.92.67-1.01,0-2.21-.13-3.58-.39-1.47-.19-2.72-.29-3.75-.29-1.66,0-3.73.37-6.22,1.11l.4-2.7c2.08-.87,3.45-1.75,4.1-2.65.97-1.45,1.72-3.89,2.24-7.33l3.98-26.94c.52-3.34.77-5.35.77-6.02,0-.58-.12-1-.37-1.25s-.73-.39-1.43-.39l.4-2.41c2.37,0,5.26-.58,8.68-1.74-.32,1.77-1.34,8.31-3.04,19.62.69.32,1.39.48,2.09.48,2.16,0,3.99-1.45,5.5-4.34s2.26-6.19,2.26-9.88c0-3.08-.64-5.57-1.92-7.45s-2.99-2.82-5.13-2.82c-3.21,0-6.24,1.21-9.1,3.64s-5.06,5.41-6.61,8.94-2.32,7.18-2.32,10.94c0,1.8.21,3.28.64,4.43s1.07,2.28,1.93,3.37c.67.8,1.15,1.53,1.45,2.17s.44,1.37.44,2.17-.17,1.51-.52,2.12-.78.92-1.32.92c-1.28,0-2.36-1.33-3.24-4s-1.32-5.77-1.32-9.3c0-5.37.97-10.23,2.91-14.58s4.54-7.78,7.79-10.29,6.62-3.76,10.07-3.76c3.95,0,7.09,1.13,9.41,3.4s3.48,5.37,3.48,9.33-1.01,7.72-3.02,11.11-4.8,5.58-8.35,6.58c.48,1.48.96,3.11,1.43,4.89s1.17,5.05,2.09,9.81c1.78,9,3.47,15.38,5.07,19.13s3.37,5.64,5.3,5.64c.67,0,1.24-.35,1.72-1.04s.8-1.73.97-3.11c.27-1.99.59-3.33.96-4.03s.84-1.04,1.39-1.04c.61,0,1.12.34,1.52,1.01s.6,1.56.6,2.65c0,1.61-.41,3.09-1.23,4.46-.82,1.36-1.75,2.36-2.78,2.99-1.03.62-2.18.94-3.44.94-6.17,0-10.91-6.68-14.21-20.05-.76-2.92-1.8-8.02-3.09-15.28l-1.29-6.99-.6-.1Z"/>
      <path class="cls-3" d="M66.53,81.69l-2.41-54.17c-.65,10.57-1.8,19.95-3.45,28.15-1.65,8.19-3.72,14.42-6.19,18.68-2.48,4.26-5.18,6.39-8.13,6.39-1.2,0-2.1-.41-2.69-1.23-.59-.82-.89-1.79-.89-2.91,0-1,.22-1.86.66-2.58.44-.73,1.04-1.09,1.81-1.09.44,0,1.11.19,2.01.58.82.39,1.46.58,1.92.58,1.01,0,1.96-.48,2.84-1.45,1.97-2.25,3.61-5.63,4.93-10.15,1.32-4.51,2.49-10.59,3.52-18.22s1.67-14.56,1.92-20.8c-3.82,0-7.06,1.45-9.7,4.36-2.65,2.91-3.97,6.23-3.97,9.95,0,1.77.4,3.45,1.2,5.06.73,1.45,1.17,2.45,1.35,3.01s.26,1.2.26,1.9c0,.93-.19,1.72-.57,2.36s-.85.96-1.4.96c-.9,0-1.68-.99-2.35-2.96s-1-4.28-1-6.92c0-3.82.73-7.34,2.19-10.56s3.51-5.74,6.15-7.59,5.59-2.77,8.86-2.77c1.17,0,2.4-.07,3.7-.22s2.2-.33,2.69-.55l-.06,3.33v1.98l1.69,35.57c4.24-12.15,8.1-21.75,11.59-28.8s6.86-11.99,10.13-14.82c-1.32,6.11-2.74,14.15-4.27,24.15l-3.84,25.79-1.09,8.19c1.45.51,2.78.77,3.98.77.96,0,1.99-.16,3.09-.48l-.34,2.75c-.8.26-1.57.39-2.29.39-1.15,0-2.36-.13-3.64-.39-1.03-.26-2.32-.39-3.87-.39-1.36,0-2.76.34-4.21,1.01.86-3.76,1.95-9.98,3.27-18.65l2.24-14.85c.8-5.04,1.41-8.32,1.83-9.83-.78,1.45-2.14,4.51-4.05,9.18-1.92,4.68-3.63,9.06-5.13,13.16s-4.25,12.14-8.27,24.12Z"/>
    </g>
  </g>
</svg>